<svg width="46" height="46" viewBox="0 0 46 46" fill="none" xmlns="http://www.w3.org/2000/svg">
<g clip-path="url(#clip0_212_3240)">
<path d="M14.3105 0H23.0184H32.862C32.862 0 35.6704 0.254235 37.3105 0.909091C38.986 1.57812 39.8642 2.1748 41.1912 3.36364C42.2087 4.27524 42.6693 4.90225 43.4628 6C44.1697 6.97773 44.6173 7.51973 45.0719 8.62713C45.4775 9.61575 45.6133 10.2165 45.7344 11.2727C45.8397 12.1902 45.7344 13.6364 45.7344 13.6364H37.1212C37.1212 13.6364 37.1462 13.1921 37.1212 12.9091C37.0794 12.4371 37.012 12.1702 36.8373 11.7273C36.608 11.1466 36.3896 10.8484 35.9854 10.3636C35.544 9.83418 35.268 9.52727 34.6603 9.18182C34.0256 8.82098 32.862 8.62713 32.862 8.62713H23.0184V37.4545L14.3105 46V0Z" fill="white"/>
<path d="M6.92783 1.81818C9.0762 0.564555 13.0801 0 13.0801 0H31.5369V8.54545L12.5122 8.72727C12.5122 8.72727 10.7989 9.45956 9.95663 10.6364C9.29446 11.5615 9.0854 12.2433 9.01013 13.3636C8.91662 14.7558 9.06681 15.7156 9.95663 16.8182C10.819 17.8866 12.5122 18.5455 12.5122 18.5455H33.6192C33.6192 18.5455 37.5195 19.5869 39.5821 21C41.5842 22.3716 42.5998 23.4158 43.8414 25.4545C45.1519 27.6062 45.6538 29.0584 45.8291 31.5455C46.0117 34.1371 45.7329 35.7329 44.5986 38.0909C43.4533 40.4718 42.3707 41.7462 40.1501 43.2727C38.9938 44.0676 38.2453 44.3855 36.9319 44.9091C35.6795 45.4085 33.6192 46 33.6192 46H14.3105L18.6645 41.6818L23.0184 37.4545H32.4834C32.4834 37.4545 33.1923 37.3389 33.6192 37.1818C34.51 36.854 34.9585 36.4904 35.6068 35.8182C36.3048 35.0945 36.6537 34.5858 36.9319 33.6364C37.2324 32.6111 37.2299 31.9349 36.9319 30.9091C36.6151 29.818 36.2582 29.1445 35.3229 28.4545C34.8901 28.1353 34.5897 28.034 34.0924 27.8182C33.4852 27.5547 32.4834 27.2727 32.4834 27.2727H13.0801C13.0801 27.2727 11.7932 27.1944 10.9978 27C10.1928 26.8033 9.76953 26.596 9.01013 26.2727C7.69396 25.7124 6.96156 25.3518 5.79203 24.5455C5.17299 24.1187 4.80373 23.8931 4.27762 23.3636C3.59813 22.6798 3.12368 22.2387 2.57392 21.4545C2.12724 20.8175 1.89037 20.4142 1.53276 19.7273C1.05951 18.8182 0.894073 18.3364 0.586267 17.3636C0.367029 16.6708 0.305177 16.2635 0.207666 15.5455C0.0212161 14.1725 -0.100432 13.3693 0.113009 12C0.213923 11.3526 0.328417 10.9992 0.491609 10.3636C0.749336 9.35987 0.902196 8.76115 1.34347 7.81818C1.79325 6.85704 2.19473 6.38495 2.85787 5.54545C4.1853 3.86505 5.05095 2.9134 6.92783 1.81818Z" fill="white"/>
<g filter="url(#filter0_d_212_3240)">
<path d="M6.92783 1.81818C9.0762 0.564555 13.0801 0 13.0801 0H31.5369V8.54545L12.5122 8.72727C12.5122 8.72727 10.7989 9.45956 9.95663 10.6364C9.29446 11.5615 9.0854 12.2433 9.01013 13.3636C8.91662 14.7558 9.06681 15.7156 9.95663 16.8182C10.819 17.8866 12.5122 18.5455 12.5122 18.5455H33.6192C33.6192 18.5455 37.5195 19.5869 39.5821 21C41.5842 22.3716 42.5998 23.4158 43.8414 25.4545C45.1519 27.6062 45.6538 29.0584 45.8291 31.5455C46.0117 34.1371 45.7329 35.7329 44.5986 38.0909C43.4533 40.4718 42.3707 41.7462 40.1501 43.2727C38.9938 44.0676 38.2453 44.3855 36.9319 44.9091C35.6795 45.4085 33.6192 46 33.6192 46H14.3105L18.6645 41.6818L23.0184 37.4545H32.4834C32.4834 37.4545 33.1923 37.3389 33.6192 37.1818C34.51 36.854 34.9585 36.4904 35.6068 35.8182C36.3048 35.0945 36.6537 34.5858 36.9319 33.6364C37.2324 32.6111 37.2299 31.9349 36.9319 30.9091C36.6151 29.818 36.2582 29.1445 35.3229 28.4545C34.8901 28.1353 34.5897 28.034 34.0924 27.8182C33.4852 27.5547 32.4834 27.2727 32.4834 27.2727H13.0801C13.0801 27.2727 11.7932 27.1944 10.9978 27C10.1928 26.8033 9.76953 26.596 9.01013 26.2727C7.69396 25.7124 6.96156 25.3518 5.79203 24.5455C5.17299 24.1187 4.80373 23.8931 4.27762 23.3636C3.59813 22.6798 3.12368 22.2387 2.57392 21.4545C2.12724 20.8175 1.89037 20.4142 1.53276 19.7273C1.05951 18.8182 0.894073 18.3364 0.586267 17.3636C0.367029 16.6708 0.305177 16.2635 0.207666 15.5455C0.0212161 14.1725 -0.100432 13.3693 0.113009 12C0.213923 11.3526 0.328417 10.9992 0.491609 10.3636C0.749336 9.35987 0.902196 8.76115 1.34347 7.81818C1.79325 6.85704 2.19473 6.38495 2.85787 5.54545C4.1853 3.86505 5.05095 2.9134 6.92783 1.81818Z" fill="white"/>
</g>
</g>
<defs>
<filter id="filter0_d_212_3240" x="-4" y="0" width="53.8804" height="58" filterUnits="userSpaceOnUse" color-interpolation-filters="sRGB">
<feFlood flood-opacity="0" result="BackgroundImageFix"/>
<feColorMatrix in="SourceAlpha" type="matrix" values="0 0 0 0 0 0 0 0 0 0 0 0 0 0 0 0 0 0 127 0" result="hardAlpha"/>
<feOffset dy="8"/>
<feGaussianBlur stdDeviation="2"/>
<feComposite in2="hardAlpha" operator="out"/>
<feColorMatrix type="matrix" values="0 0 0 0 0 0 0 0 0 0 0 0 0 0 0 0 0 0 0.25 0"/>
<feBlend mode="normal" in2="BackgroundImageFix" result="effect1_dropShadow_212_3240"/>
<feBlend mode="normal" in="SourceGraphic" in2="effect1_dropShadow_212_3240" result="shape"/>
</filter>
<clipPath id="clip0_212_3240">
<rect width="46" height="46" fill="white"/>
</clipPath>
</defs>
</svg>
