<svg width="28" height="28" viewBox="0 0 28 28" fill="none" xmlns="http://www.w3.org/2000/svg">
<path d="M25.3078 13.3718C25.3121 15.0301 24.9246 16.6659 24.177 18.1461C23.2905 19.9199 21.9277 21.4118 20.2412 22.4547C18.5547 23.4977 16.6112 24.0505 14.6283 24.0513C12.97 24.0556 11.3341 23.6682 9.85392 22.9205L2.69238 25.3077L5.07956 18.1461C4.33191 16.6659 3.94447 15.0301 3.94879 13.3718C3.94956 11.3889 4.50238 9.44531 5.54534 7.75883C6.58829 6.07235 8.08019 4.70955 9.85392 3.82307C11.3341 3.07542 12.97 2.68797 14.6283 2.6923H15.2565C17.8753 2.83677 20.3488 3.94212 22.2034 5.79671C24.0579 7.65129 25.1633 10.1248 25.3078 12.7436V13.3718Z" stroke="white" stroke-width="2" stroke-linecap="round" stroke-linejoin="round"/>
</svg>
