<svg width="28" height="28" viewBox="0 0 28 28" fill="none" xmlns="http://www.w3.org/2000/svg">
<g clip-path="url(#clip0_206_3220)">
<path d="M5.18527 9.00019L5.18527 9.00017C5.60353 7.11898 6.63862 5.43158 8.126 4.20622C9.61339 2.98086 11.4677 2.28786 13.3942 2.2374C15.3206 2.18693 17.2087 2.78188 18.7582 3.92769C20.3077 5.07349 21.4297 6.70438 21.9459 8.56109L21.8496 8.58788L21.9459 8.5611L24.1625 16.5361C24.1625 16.5362 24.1625 16.5363 24.1626 16.5364C24.3132 17.0708 24.3371 17.6331 24.2326 18.1784C24.128 18.7238 23.8978 19.2372 23.5602 19.678C23.5601 19.6782 23.56 19.6783 23.5599 19.6784L23.4806 19.6175C23.1555 20.0488 22.7343 20.3983 22.2504 20.6383C21.7666 20.8783 21.2335 21.0022 20.6934 21L5.18527 9.00019ZM5.18527 9.00019L3.47027 16.7188C3.3533 17.2451 3.35599 17.7908 3.47815 18.3159C3.60031 18.8409 3.83881 19.3318 4.17607 19.7523C4.51332 20.1729 4.94071 20.5123 5.42668 20.7455C5.91266 20.9788 6.44481 21.1 6.98387 21.1L20.693 21.1L5.18527 9.00019ZM26.218 15.9658L26.2384 16.039H26.239C26.4576 16.8686 26.4874 17.7371 26.3256 18.5802C26.1591 19.4483 25.7941 20.2661 25.2592 20.9697C24.7243 21.6733 24.034 22.2438 23.2422 22.6365C22.4503 23.0292 21.5784 23.2334 20.6946 23.2334H19.7169H19.6352L19.6189 23.3135C19.3557 24.6095 18.6526 25.7748 17.6286 26.6117C16.6046 27.4487 15.3227 27.9059 14.0002 27.9059C12.6777 27.9059 11.3959 27.4487 10.3719 26.6117C9.34789 25.7748 8.64473 24.6095 8.38156 23.3135L8.36529 23.2334H8.28356H6.98389C6.12529 23.2334 5.27765 23.0406 4.50355 22.6692C3.72944 22.2977 3.04864 21.7572 2.51141 21.0875C1.97417 20.4177 1.59422 19.6358 1.39961 18.7996C1.205 17.9633 1.20069 17.0941 1.38701 16.2559L3.10317 8.53842C3.62474 6.19291 4.91536 4.08904 6.76988 2.56123C8.62441 1.03343 10.9364 0.169365 13.3384 0.106389C15.7404 0.0434134 18.0945 0.78514 20.0265 2.21367C21.9585 3.6422 23.3576 5.67555 24.0014 7.99049L26.218 15.9658ZM10.7149 23.2334H10.5735L10.6206 23.3667C10.8679 24.0662 11.3253 24.6722 11.9302 25.1018C12.5351 25.5314 13.2579 25.7636 13.9998 25.7667L14.0006 25.7667C14.7426 25.7636 15.4654 25.5314 16.0703 25.1018C16.6752 24.6722 17.1325 24.0662 17.3798 23.3667L17.427 23.2334H17.2856H10.7149Z" fill="white" stroke="#0D0D0D" stroke-width="0.2"/>
</g>
<defs>
<clipPath id="clip0_206_3220">
<rect width="28" height="28" fill="white"/>
</clipPath>
</defs>
</svg>
